<svg width="166" height="359" viewBox="0 0 166 359" fill="none" xmlns="http://www.w3.org/2000/svg">
<path d="M113.282 356.223C122.183 356.098 131.122 355.941 139.865 354.718C140.923 354.563 142.217 354.249 142.413 353.402C142.688 352.272 140.884 351.614 139.433 351.427C134.729 350.863 129.906 350.737 125.162 350.642C93.8358 349.952 62.5095 349.264 31.1832 349.483C25.1846 349.515 19.1858 349.608 13.2263 350.234C10.2858 350.549 4.28722 350.706 2.28766 352.775C0.366525 354.75 2.71887 355.911 5.03207 356.474C12.3246 358.325 22.1263 357.039 29.6932 357.039C47.5324 357.039 65.4108 356.852 83.2499 356.631C93.2478 356.537 103.285 356.38 113.282 356.223Z" fill="url(#paint0_linear_111_88)"/>
<path d="M113.291 356.223C122.192 356.098 131.131 355.941 139.874 354.718C140.933 354.563 142.226 354.249 142.422 353.402C142.697 352.272 140.893 351.614 139.443 351.427C134.738 350.863 129.915 350.737 125.171 350.642C93.8449 349.952 62.5186 349.264 31.1923 349.483C25.1936 349.515 19.1949 349.608 13.2354 350.234C10.2949 350.549 4.29632 350.706 2.29676 352.775C0.375616 354.75 2.72797 355.911 5.04117 356.474C12.3337 358.325 22.1354 357.039 29.7023 357.039C47.5414 357.039 65.4199 356.852 83.259 356.631C93.2569 356.537 103.294 356.38 113.291 356.223Z" fill="url(#paint1_linear_111_88)"/>
<path d="M80.283 71.9914C79.6557 67.5702 72.7552 64.0586 67.5015 65.4381C62.1694 66.8491 59.6995 71.5523 56.6804 75.3149C54.2888 78.2937 51.2307 80.9275 47.7021 83.0282C46.0554 84.0315 44.0557 85.2858 44.4088 86.9162C44.5654 87.5746 45.0751 88.1705 45.5848 88.7034C47.6628 90.8983 49.7799 93.0619 52.4852 94.7549C55.1906 96.448 58.5232 97.6082 61.9734 97.4202C68.2856 97.1066 72.9904 92.5288 75.2644 87.8255C77.2248 83.6553 80.9103 76.6004 80.283 71.9914Z" fill="#97A8B2"/>
<path d="M53.1389 152.824C53.1389 152.824 27.733 319.256 27.6544 343.933L42.8275 344.277C42.8275 344.277 82.505 209.858 91.8361 202.459C91.8361 202.459 95.7177 201.894 97.2075 202.459C98.6975 203.024 96.345 339.511 93.8356 348.668H106.46C106.46 348.668 139.982 189.008 138.649 153.796C138.649 153.796 131.553 136.112 101.795 137.711C72.0365 139.31 56.1187 135.265 53.1389 152.824Z" fill="#998675"/>
<path d="M141.669 158.28C139.67 136.018 131.436 91.2121 123.281 70.3611C122.85 69.2637 122.379 68.1349 121.517 67.3197C120.027 65.9088 117.792 65.7833 115.753 65.7519C110.696 65.6892 97.4436 66.2223 92.4251 66.5671C89.759 66.7552 77.2129 66.1283 74.8604 67.3511C71.8808 68.8873 69.8811 71.7408 68.1168 74.5627C59.2169 88.8292 63.5296 105.73 58.7465 121.783C56.3156 129.904 47.7292 159.786 47.8861 167.185C48.7879 169.192 49.572 171.293 50.0817 173.394C55.2962 179.226 69.1362 176.027 76.115 179.978C81.4473 182.988 87.4067 184.431 93.4837 185.34C94.7383 185.246 95.9538 185.152 97.1692 185.026C104.226 184.305 119.282 182.988 125.633 179.915C131.985 176.843 137.905 181.828 140.375 175.306C142.375 169.913 142.179 163.987 141.669 158.28Z" fill="#97A8B2"/>
<path d="M122.343 24.6771C120.932 22.1686 117.756 20.5381 114.463 19.7857C111.169 19.0331 107.68 19.0017 104.23 18.8762C100.387 18.751 96.5059 18.4687 92.6636 18.7822C88.8215 19.0645 84.9399 19.9738 81.9601 21.9178C78.9805 23.8618 77.0201 26.9973 77.569 30.0387L77.3338 39.0062C76.7849 45.7162 79.1374 52.583 83.8815 58.1327C85.2144 59.7005 86.7827 61.1743 88.8605 62.1148C91.3307 63.2436 94.3102 63.4631 97.1725 63.4945C100.387 63.5259 103.72 63.3062 106.621 62.1462C108.974 61.2055 110.895 59.7005 112.738 58.1641C115.521 55.8751 118.266 53.4608 119.677 50.4821C121.755 46.1238 120.657 41.2638 121.52 36.6546C121.912 34.6477 122.657 32.6725 123.01 30.6658C123.402 28.6592 123.402 26.527 122.343 24.6771Z" fill="#89796E"/>
<path d="M45.2219 342.615C39.6153 341.957 28.2062 341.863 22.5603 342.303C18.0515 344.653 13.1507 346.536 8.0146 347.884C6.52473 348.292 4.95643 348.636 3.81943 349.515C2.68244 350.36 2.13361 351.865 3.03537 352.901C3.8587 353.778 5.3877 353.967 6.75996 354.028C17.189 354.656 33.3814 354.499 43.7714 353.527C44.3987 353.465 45.0652 353.402 45.5357 353.056C45.9277 352.805 46.1239 352.398 46.2805 352.022C47.5744 348.95 47.1823 345.468 45.2219 342.615Z" fill="#A58C41"/>
<path d="M110.898 343.4C110.898 343.4 92.7844 343.933 90.9023 344.81C89.0204 345.689 87.0992 353.591 90.1574 354.72C93.2548 355.848 127.796 353.026 127.796 353.026C127.796 353.026 130.658 349.765 122.072 347.789C113.525 345.814 112.153 345.814 110.898 343.4Z" fill="#A58C41"/>
<path d="M122.033 118.647C114.897 119.023 107.723 118.961 100.587 118.428C99.2537 122.065 97.9208 125.765 97.3721 129.527C97.1366 130.97 97.0583 132.444 97.6073 133.823C98.156 135.203 99.4891 136.457 101.253 136.739L105.37 138.714C109.84 134.45 115.956 131.471 121.249 127.834C124.895 125.326 128.149 122.504 131.403 119.682C128.737 118.24 125.248 118.459 122.033 118.647Z" fill="#CCCCCC"/>
<path d="M165.352 125.451C165.626 127.803 165.744 130.28 164.254 132.349C162.176 135.234 157.628 136.331 153.472 136.363C143.396 136.457 134.222 131.942 126.223 127.019C124.537 125.984 122.851 124.918 120.813 124.354C118.186 123.633 115.284 123.915 112.579 123.507C112.109 123.445 111.56 123.319 111.325 122.974C111.129 122.723 111.168 122.41 111.207 122.096C111.482 119.964 111.795 117.832 112.109 115.7C116.147 115.073 120.146 116.672 123.949 117.895C127.792 119.118 131.791 120.027 135.79 120.905C137.711 121.344 139.711 121.751 141.71 121.72C143.71 121.689 145.827 121.124 147.081 119.902C148.258 118.773 148.571 117.236 148.415 115.763C148.218 114.32 147.552 112.941 146.885 111.561C144.415 106.576 141.71 101.621 137.515 97.4513C136.143 96.103 134.535 94.6292 134.731 92.9047C134.888 91.6819 135.947 90.6473 137.24 89.9888C138.534 89.3616 140.063 89.0481 141.553 88.8286C143.984 88.4524 147.826 87.5117 150.061 88.8286C152.531 90.2709 153.629 94.0335 154.805 96.197C158.02 102.217 160.922 108.363 162.921 114.728C164.097 118.271 164.921 121.846 165.352 125.451Z" fill="#89796E"/>
<path d="M115.908 119.494C115.908 120.842 114.732 122.002 113.555 122.974C111.517 124.636 109.164 126.11 106.42 126.925C103.675 127.74 100.499 127.772 97.951 126.674C95.4026 125.577 93.6383 123.194 94.1087 120.905C94.5008 119.024 96.3044 117.487 98.3822 116.578C100.46 115.669 102.852 115.293 105.204 114.948C109.399 114.32 115.908 114.728 115.908 119.494Z" fill="#89796E"/>
<path d="M154.96 89.1108C152.451 81.7423 145.511 75.9102 138.846 70.4544C133.278 65.908 120.928 62.5218 116.42 70.2036C112.812 76.3807 119.87 87.3235 122.34 93.1555C123.046 94.786 123.986 96.636 125.986 97.2631C126.849 97.5138 127.75 97.5452 128.691 97.5138C137.238 97.3571 145.746 95.5072 153.196 92.1522C153.98 91.8072 154.803 91.3682 155.078 90.6784C155.313 90.1768 155.156 89.6437 154.96 89.1108Z" fill="#97A8B2"/>
<path d="M98.856 21.9801C99.7971 21.9173 100.542 21.353 101.13 20.7573C101.875 22.1997 104.815 22.3878 105.835 21.0395C106.227 22.1056 108.383 22.3563 109.128 21.3842C108.971 21.9487 109.677 22.513 110.383 22.5759C111.089 22.6699 111.834 22.419 112.5 22.1682C112.226 23.297 114.147 24.269 115.323 23.5792C114.892 25.0215 116.382 26.6206 118.224 26.652C117.127 28.063 117.911 30.1639 119.793 30.8536C118.577 31.8569 118.656 33.7069 119.949 34.6476C118.812 35.3686 118.93 36.9991 120.145 37.595C119.597 38.0338 119.675 38.7238 119.793 39.3507C119.949 40.3542 120.145 41.3888 120.302 42.3923C119.361 42.7685 119.714 44.148 120.734 44.2107C119.557 45.1513 119.557 46.8132 120.694 47.7539C120.028 48.0987 119.518 48.6318 119.322 49.2275C119.322 49.792 120.42 49.6979 121.008 49.4156C123.478 48.2242 125.948 46.9701 128.3 45.6532C128.889 45.3396 129.477 44.9947 129.79 44.4616C130.104 43.9599 129.986 43.2387 129.398 42.9566C130.378 42.643 131.398 42.3295 132.025 41.6397C132.652 40.9499 132.613 39.8211 131.711 39.4135C132.652 39.5388 133.554 39.0059 134.103 38.3788C134.652 37.7516 134.926 36.9992 135.397 36.3407C136.142 35.2433 137.357 33.9264 136.416 32.9231C136.73 32.4214 137.357 32.1079 137.906 31.7315C138.455 31.3867 139.004 30.9163 139.004 30.3519C139.004 29.7875 138.22 29.2232 137.632 29.5367C139.082 28.9096 140.023 27.5613 139.945 26.2444C140.337 25.4292 140.69 24.6139 140.964 23.7673C140.572 23.6418 140.18 23.5478 139.749 23.4223C140.651 22.3249 141.435 20.6318 140.102 19.8794C141.474 19.6599 142.023 18.0294 140.964 17.2768C140.69 17.0887 140.376 16.9633 140.219 16.7125C139.788 16.1481 140.494 15.4896 140.651 14.8625C140.925 13.8278 139.435 12.7617 138.141 13.138C138.534 11.7583 137.083 10.222 135.318 10.1593C134.966 10.1593 134.574 10.1906 134.26 10.0339C133.868 9.84572 133.75 9.43809 133.593 9.12452C133.162 8.27794 132.143 7.61949 131.006 7.46273C130.496 7.40001 129.947 7.40001 129.516 7.18054C129.045 6.89835 128.849 6.3967 128.457 6.0518C127.203 5.0171 124.733 6.14581 123.4 5.20516C122.811 4.79754 122.655 4.10776 121.988 3.76286C121.086 3.29253 119.832 3.82553 118.773 3.73146C117.323 3.60606 116.146 2.41464 114.735 2.63412C114.147 2.72819 113.676 3.04172 113.088 3.10443C112.069 3.1985 111.245 2.47732 110.383 2.00699C109.52 1.53666 107.952 1.53671 107.835 2.35193C106.737 0.815546 103.522 0.658719 102.189 2.10104C102.346 1.63072 101.13 1.56805 101.169 2.03837C100.189 1.72482 99.1698 1.37988 98.1111 1.41123C97.0527 1.41123 95.9157 1.85025 95.5236 2.63412C94.269 2.13244 92.6614 1.63078 91.5637 2.35193C91.1323 2.63414 90.8971 3.04172 90.4658 3.29255C89.6033 3.79423 88.427 3.54338 87.3683 3.57474C86.3099 3.60609 85.016 4.35857 85.5257 5.11109C84.5456 4.95433 83.487 4.8289 82.5462 5.11109C81.6051 5.3933 80.8992 6.30263 81.2913 7.02379C79.7232 7.08651 78.3901 8.27803 78.4684 9.50088C78.4684 9.78306 78.547 10.0966 78.3901 10.3788C78.2332 10.661 77.8021 10.7864 77.4883 10.9746C76.0768 11.6644 75.5279 13.232 76.2337 14.4235C75.2143 14.643 74.195 14.9252 73.4891 15.521C72.7835 16.1167 72.509 17.1201 73.0972 17.7785C73.3325 18.0294 73.646 18.2175 73.7636 18.531C73.8812 18.9386 73.4893 19.3149 73.2149 19.7226C72.6266 20.6318 73.058 21.9175 74.195 22.4192C72.6659 23.1089 72.3128 24.9901 73.4891 26.0563C72.1562 27.4358 72.5873 29.4427 73.1363 31.1358C73.4501 32.1391 73.7636 33.1424 74.0381 34.1458C73.3325 34.8983 73.646 36.1526 74.7046 36.6229C73.9205 37.1873 74.234 38.4102 75.2143 38.6923C75.2927 40.0406 75.8809 41.3574 76.861 42.4549C77.0962 42.8938 77.8411 42.3609 77.998 41.9218C78.7429 39.6016 79.4878 37.3126 80.2327 34.9924C80.6248 33.7381 81.0171 32.296 80.076 31.2298C81.2913 30.5715 82.0362 29.4113 82.1148 28.2511C83.8398 28.596 85.6041 26.9656 84.9377 25.6487C86.741 25.9308 88.5839 24.4572 88.2311 23.0149C89.8777 23.4851 91.8772 22.3878 91.9558 21.008C92.4262 21.8861 94.465 21.5725 94.465 20.6004C94.465 21.0709 96.4644 20.7573 96.6996 20.8514C97.6014 21.1963 97.6014 22.0742 98.856 21.9801Z" fill="#333333"/>
<path d="M105.052 135.328C105.484 136.457 105.601 137.711 105.445 138.902C79.8815 140.47 54.2794 141.129 28.6773 140.846C26.6385 133.164 33.7742 135.359 39.3808 135.704C46.7909 136.174 54.2011 136.457 61.611 136.582C65.5319 136.614 104.778 134.513 105.052 135.328Z" fill="#F7F7F7"/>
<path d="M25.9741 81.9934C52.8701 81.3976 77.6095 81.1781 103.761 79.1086C104.858 96.6675 106.78 119.839 104.27 137.272C86.392 138.934 66.3572 137.147 48.4005 138.056C44.0092 138.276 39.4613 138.808 35.07 138.652C30.6789 138.495 29.8164 135.704 29.2675 131.66C28.1695 123.413 28.5226 114.759 27.8953 106.45C27.7384 103.973 27.1504 82.1188 25.9741 81.9934Z" fill="#E6E6E6"/>
<path d="M72.5834 115.073C69.2507 111.969 67.4865 107.485 65.6046 103.722C65.2908 103.095 64.2717 102.907 63.801 103.534C60.8605 107.359 58.2337 111.31 55.8812 115.386C55.3322 116.296 57.0575 117.111 57.6064 116.202C62.3896 116.045 67.1727 116.139 71.9168 116.421C72.8186 116.484 73.0931 115.543 72.5834 115.073ZM58.5865 114.602C60.3901 111.592 62.3503 108.645 64.5069 105.792C65.9967 108.865 67.5258 112.094 69.8388 114.759C65.0949 114.446 61.9192 114.446 58.5865 114.602Z" fill="white"/>
<path d="M53.646 139.687C54.9006 138.871 56.2338 137.931 56.5866 136.676C56.9394 135.422 56.2338 134.105 55.2144 133.133C54.1557 132.161 52.8228 131.44 51.529 130.656C49.4902 129.402 47.6083 127.897 45.2951 127.019C42.9818 126.141 39.963 126.016 38.0025 127.364C36.7872 128.211 36.199 129.433 35.7286 130.656C34.5916 133.572 33.8857 136.614 33.6898 139.655C33.6112 140.815 33.6112 142.007 34.2778 143.01C35.0227 144.107 36.4735 144.797 37.9633 145.111C43.7267 146.302 49.4902 142.414 53.646 139.687Z" fill="#89796E"/>
<defs>
<linearGradient id="paint0_linear_111_88" x1="1.57801" y1="353.475" x2="142.477" y2="353.475" gradientUnits="userSpaceOnUse">
<stop stop-color="#4D4D4D"/>
<stop offset="1"/>
</linearGradient>
<linearGradient id="paint1_linear_111_88" x1="1.5871" y1="353.475" x2="142.486" y2="353.475" gradientUnits="userSpaceOnUse">
<stop/>
<stop offset="1"/>
</linearGradient>
</defs>
</svg>
